<?xml version="1.0" standalone="no"?>
<!DOCTYPE svg PUBLIC "-//W3C//DTD SVG 20010904//EN"
 "http://www.w3.org/TR/2001/REC-SVG-20010904/DTD/svg10.dtd">
<svg version="1.0" xmlns="http://www.w3.org/2000/svg"
 width="800pt" height="800pt" viewBox="0 0 3200.000000 3200.000000"
 preserveAspectRatio="xMidYMid meet">
<metadata>
Created by potrace 1.16, written by Peter Selinger 2001-2019
</metadata>
<g transform="translate(0.000000,3200.000000) scale(0.100000,-0.100000)"
fill="#3d3d3d" stroke="none">
<path d="M15770 27270 c-30 -5 -131 -11 -225 -15 -177 -7 -288 -17 -365 -34
-25 -6 -76 -10 -115 -11 -38 0 -88 -5 -110 -11 -22 -6 -107 -17 -190 -24 -82
-8 -175 -19 -205 -25 -101 -20 -154 -30 -220 -41 -36 -5 -85 -15 -110 -21 -25
-6 -74 -16 -110 -23 -36 -7 -83 -18 -105 -24 -22 -6 -83 -20 -135 -31 -92 -20
-202 -48 -305 -75 -52 -14 -107 -27 -210 -49 -33 -7 -78 -18 -100 -25 -22 -6
-71 -21 -110 -33 -38 -11 -86 -27 -105 -34 -19 -7 -50 -16 -68 -19 -18 -4 -45
-13 -60 -21 -15 -8 -35 -14 -45 -14 -10 0 -28 -5 -40 -11 -11 -7 -42 -18 -67
-25 -89 -26 -446 -152 -504 -178 -32 -14 -61 -26 -63 -26 -5 0 -70 -27 -158
-65 -76 -32 -225 -95 -275 -115 -30 -12 -101 -44 -157 -71 -57 -27 -151 -72
-210 -100 -370 -176 -596 -296 -876 -466 -56 -34 -130 -79 -165 -100 -162 -98
-623 -410 -701 -475 -7 -6 -37 -27 -66 -47 -96 -66 -264 -195 -390 -301 -88
-74 -205 -168 -304 -245 -73 -57 -133 -109 -361 -314 -84 -77 -397 -379 -555
-536 -126 -127 -397 -421 -453 -493 -23 -30 -49 -60 -56 -66 -7 -6 -58 -66
-112 -134 -55 -68 -129 -160 -166 -205 -37 -45 -76 -93 -85 -107 -10 -14 -58
-77 -108 -142 -49 -64 -105 -138 -123 -165 -18 -26 -53 -77 -77 -113 -24 -36
-52 -78 -61 -94 -8 -15 -37 -58 -63 -95 -26 -36 -61 -88 -77 -114 -16 -27 -38
-63 -49 -81 -11 -18 -46 -77 -78 -132 -33 -54 -67 -111 -78 -126 -10 -15 -19
-30 -19 -34 0 -4 -6 -15 -14 -23 -7 -9 -34 -54 -59 -101 -25 -47 -58 -108 -74
-135 -15 -28 -57 -106 -91 -175 -35 -69 -67 -132 -72 -140 -35 -62 -170 -355
-205 -445 -15 -38 -42 -103 -61 -143 -19 -40 -34 -76 -34 -80 -1 -4 -9 -25
-20 -47 -11 -22 -19 -45 -20 -52 0 -7 -16 -46 -35 -89 -19 -42 -35 -85 -35
-95 0 -10 -4 -20 -9 -24 -5 -3 -15 -22 -21 -43 -6 -20 -17 -53 -24 -72 -27
-71 -38 -106 -51 -155 -7 -27 -33 -108 -59 -179 -25 -72 -46 -136 -46 -144 0
-8 -7 -28 -15 -45 -38 -83 -103 -297 -130 -427 -8 -36 -23 -96 -35 -135 -12
-38 -26 -88 -31 -110 -6 -22 -15 -58 -21 -80 -6 -22 -17 -69 -24 -105 -7 -36
-17 -85 -22 -110 -24 -107 -54 -269 -71 -390 -6 -41 -18 -115 -26 -165 -23
-141 -52 -374 -70 -570 -9 -99 -21 -218 -26 -265 -30 -245 -32 -324 -32 -1135
0 -717 3 -854 16 -935 9 -52 19 -140 22 -195 4 -55 13 -134 21 -175 8 -41 14
-113 14 -160 0 -47 7 -106 14 -132 8 -26 18 -80 21 -120 4 -40 11 -88 17 -106
5 -18 14 -70 18 -115 5 -45 14 -100 19 -122 28 -108 51 -228 51 -265 0 -22 7
-57 15 -77 8 -19 15 -45 15 -56 0 -22 33 -172 56 -252 7 -27 21 -77 29 -110 9
-33 22 -85 31 -115 8 -30 20 -75 25 -100 23 -100 68 -255 94 -320 7 -19 25
-75 40 -125 32 -104 50 -158 104 -310 21 -60 44 -126 51 -145 6 -19 18 -48 25
-65 15 -34 43 -105 75 -185 12 -30 27 -68 35 -85 7 -16 23 -55 35 -85 12 -30
38 -89 57 -130 20 -41 41 -88 48 -105 44 -101 195 -409 231 -470 13 -22 28
-51 34 -65 5 -14 15 -32 20 -40 6 -8 14 -24 19 -35 5 -11 38 -71 75 -133 36
-62 66 -115 66 -118 0 -4 53 -96 82 -142 9 -15 27 -47 39 -72 13 -25 48 -83
79 -130 57 -88 61 -94 106 -170 15 -25 35 -54 44 -65 10 -11 43 -58 74 -105
30 -47 61 -92 69 -101 7 -8 16 -23 20 -32 3 -9 11 -17 17 -17 5 0 10 -6 10
-13 0 -7 18 -38 40 -68 21 -30 63 -87 92 -127 29 -40 82 -110 117 -155 35 -45
91 -120 125 -166 33 -47 84 -110 112 -140 28 -31 79 -92 114 -136 36 -44 70
-84 76 -90 6 -5 33 -39 60 -75 27 -36 83 -101 125 -145 41 -44 101 -111 131
-150 72 -90 355 -377 478 -485 174 -151 243 -214 309 -280 65 -65 101 -96 155
-135 15 -11 44 -35 64 -53 20 -19 80 -68 132 -109 52 -42 100 -81 105 -87 12
-14 112 -94 144 -116 12 -8 32 -23 44 -32 12 -9 45 -34 74 -55 28 -21 89 -68
135 -104 79 -62 302 -219 312 -219 3 0 40 -24 84 -53 43 -30 110 -73 150 -98
40 -24 103 -63 140 -86 37 -23 76 -47 87 -53 11 -6 52 -28 90 -50 39 -22 99
-55 135 -73 61 -32 113 -60 250 -135 101 -54 344 -177 410 -205 94 -42 128
-57 295 -137 83 -40 184 -85 225 -100 41 -16 143 -57 225 -90 179 -74 263
-105 455 -171 80 -28 154 -54 165 -59 11 -4 54 -18 95 -30 77 -23 160 -52 218
-76 18 -8 39 -14 46 -14 7 0 44 -9 82 -20 98 -29 203 -60 244 -73 19 -6 60
-16 90 -23 30 -7 69 -17 85 -22 17 -6 59 -16 95 -22 36 -6 101 -17 145 -25 44
-8 109 -19 145 -25 36 -6 79 -16 95 -22 17 -5 62 -16 102 -23 40 -8 80 -18 90
-24 10 -5 52 -13 93 -17 41 -4 88 -13 105 -19 16 -7 73 -16 125 -20 52 -4 120
-13 150 -21 30 -8 84 -14 121 -14 37 0 100 -6 140 -14 41 -8 132 -17 202 -20
71 -3 165 -12 210 -20 95 -17 583 -32 932 -29 440 4 889 20 920 33 17 6 91 15
165 20 74 4 150 13 168 19 18 5 72 11 120 12 48 1 121 10 162 20 41 10 107 18
146 19 39 0 91 7 114 15 23 8 63 15 89 15 26 0 71 7 101 15 30 9 85 20 123 24
37 5 74 14 82 21 8 7 45 15 82 17 38 3 73 10 80 15 6 5 42 14 79 19 37 5 87
16 111 24 24 8 60 15 79 15 19 0 47 6 62 14 15 7 47 17 72 21 25 4 50 11 55
15 11 8 100 34 175 51 67 15 149 39 205 59 28 10 61 21 75 23 40 9 123 37 152
53 14 8 34 14 44 14 18 0 98 28 159 56 17 7 42 16 57 20 15 3 32 12 39 20 6 8
18 14 26 14 8 0 38 9 66 21 29 12 70 28 92 37 22 8 59 24 82 34 23 10 48 18
56 18 8 0 20 7 27 15 7 8 21 15 32 15 10 0 36 9 56 19 20 11 62 29 92 41 194
75 640 292 775 378 28 17 55 32 62 32 6 0 18 6 25 13 7 7 24 18 38 25 42 22
135 75 243 140 12 7 39 23 59 35 21 12 96 63 168 112 73 50 166 113 208 140
116 75 378 261 444 315 17 14 62 48 99 75 37 28 134 106 214 175 81 69 171
143 199 164 28 21 85 71 126 111 41 39 170 161 285 270 116 110 243 233 284
275 154 157 518 547 551 590 19 25 64 79 100 120 36 41 82 95 102 120 20 25
48 59 63 75 14 17 42 53 60 82 19 28 49 69 68 90 18 21 49 60 68 86 74 104
128 181 224 319 55 78 115 163 133 188 80 111 254 393 381 618 54 96 56 99 70
116 43 51 372 706 468 931 100 233 133 313 133 322 0 4 21 62 46 128 25 66 50
136 56 155 5 19 14 40 19 45 4 6 12 29 18 50 5 22 23 78 40 125 17 47 31 91
31 98 0 8 6 28 14 45 16 37 40 109 61 182 8 28 28 92 44 144 17 52 31 103 31
114 0 11 7 41 15 68 8 27 22 70 30 97 7 26 17 67 20 92 14 98 59 283 91 373
19 50 18 127 -1 154 -21 31 -78 40 -120 20 -42 -20 -87 -99 -149 -262 -26 -66
-53 -135 -61 -153 -8 -18 -15 -39 -15 -46 0 -13 -22 -70 -54 -141 -8 -16 -33
-75 -56 -130 -24 -55 -67 -147 -96 -205 -29 -58 -72 -145 -94 -195 -59 -127
-168 -346 -180 -360 -6 -7 -45 -79 -86 -161 -42 -82 -93 -178 -114 -214 -20
-36 -40 -72 -44 -80 -3 -8 -16 -31 -28 -50 -11 -19 -26 -44 -32 -55 -6 -11
-41 -65 -77 -120 -64 -98 -104 -162 -144 -230 -18 -31 -36 -57 -138 -202 -70
-101 -104 -148 -152 -218 -27 -38 -59 -83 -72 -100 -29 -37 -201 -260 -228
-296 -308 -413 -883 -1033 -1280 -1380 -33 -29 -94 -85 -135 -125 -41 -40
-114 -103 -161 -141 -95 -75 -179 -144 -284 -234 -77 -66 -196 -157 -305 -234
-39 -27 -94 -68 -123 -89 -85 -65 -588 -396 -602 -396 -4 0 -44 -24 -88 -54
-45 -29 -96 -61 -114 -70 -18 -9 -52 -30 -77 -46 -24 -17 -59 -37 -78 -46 -18
-8 -60 -31 -93 -50 -33 -19 -76 -42 -95 -51 -19 -8 -37 -18 -40 -22 -3 -3 -16
-12 -30 -19 -14 -6 -52 -28 -85 -47 -33 -20 -107 -58 -165 -86 -58 -27 -136
-65 -175 -84 -174 -84 -304 -145 -309 -145 -3 0 -34 -13 -68 -29 -124 -57
-322 -141 -332 -141 -6 0 -28 -9 -49 -20 -20 -11 -43 -20 -49 -20 -7 0 -26 -7
-41 -15 -15 -8 -42 -19 -60 -24 -18 -5 -57 -19 -87 -31 -30 -12 -73 -28 -95
-35 -22 -8 -71 -26 -110 -40 -38 -14 -83 -30 -100 -34 -34 -10 -204 -65 -250
-82 -40 -14 -159 -47 -215 -60 -25 -5 -63 -15 -85 -23 -57 -19 -132 -38 -295
-75 -25 -5 -67 -15 -95 -21 -27 -6 -83 -18 -123 -25 -40 -8 -81 -19 -91 -25
-11 -5 -43 -10 -71 -10 -28 0 -66 -6 -84 -14 -18 -7 -66 -17 -107 -20 -41 -4
-96 -13 -124 -21 -27 -7 -85 -16 -128 -19 -43 -3 -86 -10 -97 -16 -10 -5 -65
-14 -122 -19 -57 -5 -116 -15 -133 -21 -16 -7 -93 -14 -170 -16 -77 -2 -180
-11 -230 -19 -211 -35 -215 -35 -252 -20 -34 15 -35 16 -29 56 4 23 15 61 26
85 11 23 20 47 20 53 0 5 6 16 13 23 7 7 42 72 78 143 36 72 105 202 154 290
48 88 101 187 117 220 46 95 83 166 235 450 17 33 51 98 75 145 24 47 63 121
87 165 94 177 135 257 209 400 64 126 137 259 224 411 9 16 34 63 55 104 22
41 55 104 75 140 19 36 64 119 98 185 79 152 106 201 197 357 40 69 73 129 73
133 0 3 16 32 36 63 20 31 58 97 83 147 26 49 76 142 113 205 36 63 100 178
143 255 121 217 196 346 230 395 17 25 45 71 63 102 50 92 174 278 229 343
124 149 272 282 378 341 95 53 210 104 234 104 9 0 25 6 36 13 11 7 58 23 105
36 47 12 117 31 155 42 39 10 79 19 90 19 11 0 40 6 65 15 25 8 77 23 115 34
133 38 220 63 260 76 22 7 74 23 115 35 41 13 114 38 161 56 47 18 98 36 113
40 14 3 29 10 32 15 3 5 12 9 21 9 9 0 34 9 57 20 23 11 86 37 141 58 111 44
208 88 430 198 140 69 185 93 355 186 84 45 353 211 405 249 22 16 107 73 188
127 81 53 175 117 209 142 33 25 71 52 85 61 13 9 49 38 79 65 31 27 73 60 93
74 111 76 221 174 525 470 263 257 455 465 636 693 5 7 30 37 54 67 25 30 74
94 108 142 152 212 194 272 213 303 11 18 46 73 78 121 122 185 305 512 431
769 61 125 77 160 136 300 23 55 48 114 56 130 7 17 34 84 59 150 25 66 50
129 55 140 5 11 18 49 30 85 12 36 34 101 49 145 16 44 48 141 71 215 23 74
48 153 56 175 8 22 18 60 23 85 6 25 24 97 41 160 42 152 55 206 80 325 12 55
26 120 32 145 29 126 50 232 58 293 5 37 14 75 19 85 5 9 12 46 16 82 4 36 13
90 21 121 8 31 14 80 14 107 0 28 9 96 20 152 11 56 20 125 20 153 1 29 5 72
10 97 5 25 14 104 20 175 5 72 16 162 24 200 8 39 17 144 20 235 3 91 10 181
16 200 6 19 15 141 19 271 4 130 11 241 15 248 5 7 12 96 16 199 5 113 15 211
24 247 10 35 16 100 16 158 0 55 7 125 15 156 8 31 19 99 24 151 6 52 15 120
20 150 6 30 15 87 21 125 20 137 39 245 45 255 3 5 10 38 16 72 5 35 16 83 23
108 8 25 21 74 31 110 9 36 25 92 35 125 10 33 28 94 40 135 29 98 61 192 70
205 4 6 15 35 24 65 16 50 40 112 113 300 14 36 47 108 73 160 26 52 51 106
55 120 4 14 29 56 54 95 111 168 126 216 74 236 -36 14 -203 3 -250 -16 -20
-8 -45 -15 -57 -15 -11 -1 -39 -9 -61 -20 -22 -11 -51 -19 -63 -20 -13 0 -56
-9 -95 -20 -162 -47 -184 -53 -222 -65 -22 -7 -74 -23 -115 -35 -41 -13 -100
-32 -130 -43 -30 -11 -71 -25 -90 -32 -34 -12 -119 -43 -190 -70 -19 -7 -82
-31 -140 -53 -58 -22 -114 -42 -125 -45 -32 -9 -107 -37 -142 -52 -17 -8 -36
-15 -43 -15 -7 0 -24 -6 -38 -14 -47 -26 -203 -90 -297 -123 -22 -8 -72 -30
-111 -49 -39 -19 -76 -34 -82 -34 -6 0 -23 -6 -39 -14 -15 -7 -44 -20 -63 -29
-19 -8 -62 -27 -95 -42 -33 -14 -73 -32 -90 -39 -16 -7 -95 -45 -175 -84 -80
-39 -176 -85 -215 -102 -65 -30 -159 -76 -202 -99 -10 -5 -49 -25 -88 -44 -81
-40 -409 -208 -505 -259 -162 -87 -226 -121 -236 -129 -6 -5 -45 -27 -87 -49
-43 -22 -120 -65 -172 -95 -52 -30 -114 -64 -138 -76 -23 -12 -64 -36 -92 -54
-27 -17 -106 -65 -175 -105 -143 -84 -367 -229 -580 -375 -41 -28 -113 -77
-160 -109 -47 -33 -110 -78 -140 -101 -30 -23 -66 -48 -80 -55 -14 -7 -27 -16
-30 -19 -3 -4 -30 -23 -60 -43 -58 -38 -246 -174 -315 -227 -60 -47 -127 -100
-152 -122 -13 -10 -55 -45 -95 -78 -111 -91 -294 -246 -409 -346 -57 -50 -138
-118 -179 -152 -80 -66 -458 -436 -631 -618 -194 -206 -308 -330 -341 -371
-18 -23 -80 -100 -137 -170 -57 -71 -111 -140 -120 -154 -9 -14 -43 -60 -76
-104 -100 -130 -144 -191 -144 -198 -1 -4 -22 -37 -48 -73 -27 -37 -61 -88
-77 -113 -16 -26 -59 -92 -95 -147 -74 -112 -66 -100 -141 -227 -95 -161 -197
-361 -327 -638 -64 -136 -72 -154 -99 -224 -14 -38 -30 -77 -34 -85 -15 -27
-77 -193 -101 -266 -12 -38 -28 -86 -35 -105 -7 -19 -22 -69 -34 -110 -12 -41
-28 -97 -36 -123 -9 -27 -19 -70 -24 -95 -5 -26 -14 -67 -20 -92 -26 -104 -32
-127 -41 -170 -6 -25 -17 -68 -25 -96 -8 -28 -14 -66 -14 -85 0 -19 -9 -66
-20 -104 -11 -38 -20 -95 -20 -126 0 -30 -7 -78 -15 -105 -8 -27 -19 -115 -24
-194 -5 -80 -14 -163 -20 -185 -14 -53 -15 -795 0 -850 5 -22 14 -110 19 -195
4 -85 13 -168 19 -184 7 -16 16 -75 21 -130 5 -56 13 -119 19 -141 5 -22 14
-67 20 -100 16 -99 32 -167 52 -223 10 -30 19 -61 19 -70 0 -17 58 -210 87
-287 33 -90 130 -273 166 -311 67 -74 182 -114 283 -98 63 9 122 56 156 124
83 167 308 645 308 656 0 9 185 379 227 454 14 25 52 97 85 160 33 63 70 133
83 155 13 22 29 54 35 72 12 34 114 217 135 243 7 8 32 51 55 95 23 44 48 87
54 95 15 21 28 44 82 152 26 51 60 111 74 133 15 22 71 117 125 210 54 94 103
177 110 185 7 8 23 35 36 60 13 25 38 66 55 91 18 25 40 61 49 80 10 18 43 72
73 119 30 47 70 110 90 140 19 30 43 64 53 75 9 11 29 41 42 67 14 26 46 77
70 112 25 36 57 84 71 108 15 24 47 70 71 103 24 33 62 87 84 120 45 68 140
196 284 383 55 70 119 157 143 193 25 36 82 110 127 165 45 54 100 126 122
159 21 33 56 78 76 100 19 22 54 65 76 95 22 30 53 66 68 80 15 14 58 66 95
115 38 50 82 104 97 120 71 76 243 274 272 314 17 25 73 89 124 144 51 54 96
106 101 115 5 9 46 55 90 101 113 118 108 112 138 156 38 55 101 122 370 392
228 229 272 263 300 235 11 -11 -3 -72 -21 -94 -43 -52 -135 -169 -183 -235
-98 -134 -167 -228 -176 -238 -4 -5 -19 -26 -32 -45 -29 -40 -219 -286 -368
-474 -56 -72 -141 -187 -188 -256 -47 -69 -113 -164 -147 -212 -34 -47 -90
-126 -124 -175 -35 -48 -71 -99 -82 -113 -67 -87 -242 -346 -254 -375 -4 -11
-25 -40 -46 -65 -33 -39 -68 -89 -106 -152 -39 -63 -112 -189 -127 -216 -10
-18 -39 -61 -63 -95 -52 -72 -96 -143 -145 -231 -38 -68 -104 -182 -132 -224
-10 -15 -26 -43 -36 -62 -29 -57 -153 -272 -181 -315 -46 -72 -51 -80 -63
-105 -7 -14 -33 -61 -59 -105 -25 -44 -75 -134 -109 -200 -85 -162 -111 -210
-150 -280 -35 -63 -152 -289 -202 -390 -16 -33 -33 -67 -38 -75 -19 -32 -130
-261 -130 -267 0 -3 -6 -14 -14 -22 -8 -9 -24 -41 -36 -71 -13 -30 -56 -122
-95 -205 -70 -144 -107 -222 -174 -367 -16 -36 -33 -79 -37 -95 -3 -15 -21
-57 -39 -93 -18 -36 -44 -90 -58 -120 -65 -143 -131 -288 -145 -320 -8 -19
-21 -47 -29 -62 -7 -14 -13 -32 -13 -39 0 -14 -11 -38 -144 -311 -42 -86 -76
-159 -76 -162 0 -5 -27 -64 -107 -236 -52 -110 -119 -244 -165 -330 -22 -41
-52 -102 -66 -135 -15 -33 -48 -98 -75 -145 -27 -47 -53 -94 -58 -105 -5 -11
-20 -38 -33 -60 -12 -22 -40 -71 -61 -110 -20 -38 -41 -75 -47 -82 -5 -6 -21
-35 -37 -65 -33 -64 -81 -151 -107 -195 -48 -80 -106 -181 -152 -263 -14 -25
-32 -56 -41 -70 -34 -54 -41 -66 -51 -88 -5 -13 -40 -73 -76 -134 -36 -61 -70
-122 -75 -135 -5 -13 -37 -70 -72 -126 -117 -188 -204 -337 -277 -472 -39 -73
-70 -124 -137 -226 -13 -19 -23 -39 -23 -43 0 -5 -13 -25 -30 -46 -16 -21 -30
-41 -30 -45 0 -3 -33 -64 -73 -133 -40 -70 -84 -147 -97 -172 -13 -25 -35 -64
-49 -87 -65 -104 -141 -232 -165 -278 -15 -27 -31 -57 -36 -65 -5 -8 -68 -118
-141 -245 -72 -126 -137 -237 -144 -245 -7 -8 -32 -51 -55 -95 -24 -44 -67
-116 -96 -160 -29 -44 -60 -98 -70 -120 -17 -37 -44 -85 -182 -331 -29 -50
-52 -95 -52 -99 0 -4 -9 -20 -21 -36 -29 -41 -78 -132 -146 -269 -78 -159
-129 -236 -167 -253 -41 -19 -240 -31 -286 -17 -19 6 -91 13 -160 16 -69 3
-145 12 -169 20 -25 8 -67 14 -94 14 -27 0 -75 7 -106 14 -31 8 -92 19 -136
24 -77 9 -164 27 -270 57 -27 7 -79 18 -115 23 -62 10 -88 16 -205 47 -27 7
-72 18 -100 23 -27 6 -81 20 -120 31 -38 12 -92 26 -120 32 -27 6 -88 22 -135
36 -47 14 -103 30 -125 36 -22 5 -49 13 -60 18 -58 24 -159 59 -172 59 -8 0
-29 6 -46 14 -39 17 -119 44 -168 56 -19 5 -49 16 -65 25 -16 8 -34 15 -41 15
-6 0 -24 6 -40 14 -15 8 -55 24 -88 36 -33 12 -80 30 -105 40 -25 10 -65 26
-90 36 -25 10 -64 26 -87 36 -23 10 -46 18 -51 18 -5 0 -31 9 -58 21 -27 11
-58 24 -69 29 -27 11 -95 41 -180 80 -163 74 -713 354 -795 405 -19 12 -57 32
-85 45 -49 23 -134 70 -180 100 -13 8 -56 35 -97 58 -121 72 -413 262 -537
350 -134 94 -187 134 -273 200 -51 40 -158 122 -238 183 -80 61 -167 132 -195
158 -27 25 -84 73 -125 106 -120 95 -657 626 -785 775 -25 30 -80 91 -120 135
-41 44 -93 105 -117 137 -24 31 -77 100 -117 155 -41 54 -107 139 -146 188
-39 50 -87 112 -105 139 -19 27 -56 78 -82 115 -67 93 -117 167 -156 231 -18
30 -37 57 -41 60 -4 3 -28 41 -55 85 -26 44 -65 107 -86 140 -22 33 -46 74
-55 90 -8 17 -24 44 -34 62 -62 100 -275 525 -371 738 -12 28 -36 79 -52 115
-17 36 -41 90 -55 120 -13 30 -33 74 -44 98 -10 23 -19 47 -19 52 0 5 -13 37
-29 72 -39 86 -111 272 -111 286 0 6 -9 31 -19 54 -11 24 -27 63 -36 88 -9 25
-25 65 -35 90 -10 25 -27 77 -39 115 -11 39 -36 120 -55 180 -18 61 -41 139
-51 175 -9 36 -26 94 -36 129 -10 35 -19 72 -19 82 0 10 -11 60 -24 111 -30
114 -38 146 -66 273 -12 55 -26 114 -31 130 -6 17 -14 64 -19 105 -6 41 -16
104 -24 140 -30 138 -46 240 -46 286 0 27 -7 81 -15 119 -8 39 -19 125 -24
192 -5 68 -13 128 -18 135 -8 13 -12 115 -33 843 -10 346 -10 488 1 725 7 162
13 365 15 450 1 104 7 175 18 216 9 34 16 86 16 115 0 30 7 86 15 124 9 39 18
106 21 150 3 44 12 96 19 115 7 19 16 64 20 100 4 36 11 75 16 87 5 13 13 62
19 110 6 49 17 111 24 138 8 28 21 86 31 130 16 77 36 157 76 310 30 111 71
276 79 320 5 22 22 83 38 135 17 52 42 136 57 185 33 109 103 305 114 320 5 5
11 21 14 35 6 28 70 199 93 247 8 18 26 63 40 100 14 37 37 92 51 123 63 138
350 713 391 785 67 118 90 160 140 260 25 50 48 92 52 95 4 3 20 28 35 55 16
28 83 133 150 235 67 102 135 206 151 232 51 82 223 330 234 338 4 3 20 25 36
50 34 53 141 196 168 225 10 11 42 52 72 91 29 39 69 89 90 110 20 22 48 57
62 79 14 22 57 74 97 115 39 41 91 100 116 130 139 172 702 738 865 869 43 35
108 90 144 122 108 95 188 162 238 197 26 19 69 52 97 75 27 23 67 55 90 71
22 16 46 35 53 42 25 25 99 84 106 84 7 0 161 115 185 138 8 7 23 19 35 26 57
35 259 165 319 205 82 55 224 143 287 179 25 13 74 42 110 62 36 21 99 55 140
78 41 22 109 58 150 81 191 105 657 330 890 431 80 34 159 68 175 75 63 28
213 85 287 110 43 13 86 29 95 34 10 5 41 17 68 26 28 8 106 34 175 56 180 58
233 73 345 99 55 12 116 28 135 35 19 8 78 23 130 35 52 11 115 26 140 32 46
11 129 26 285 52 49 9 101 20 115 25 14 5 57 13 95 16 39 4 95 13 125 21 30 8
79 14 110 14 31 0 79 6 106 14 27 8 101 18 164 21 63 4 140 13 170 20 30 8
127 16 215 19 95 2 176 10 200 18 58 19 1201 19 1260 -1 23 -7 126 -16 245
-20 117 -5 218 -13 235 -20 16 -7 83 -14 150 -16 75 -2 136 -9 164 -19 24 -9
71 -16 105 -16 33 0 94 -9 135 -20 41 -11 98 -20 127 -20 28 0 71 -7 94 -15
23 -8 61 -15 84 -15 24 0 65 -6 92 -14 27 -8 74 -17 104 -21 30 -4 75 -13 100
-20 25 -8 68 -18 95 -24 97 -19 172 -39 191 -49 11 -6 42 -15 69 -21 79 -16
136 -32 190 -52 28 -10 58 -19 68 -19 10 0 28 -5 39 -11 12 -7 44 -17 72 -24
28 -7 67 -19 86 -26 19 -7 58 -20 85 -29 28 -10 66 -23 85 -30 19 -6 53 -16
75 -21 21 -6 44 -14 51 -20 6 -5 31 -13 55 -18 24 -5 76 -21 114 -36 39 -14
84 -30 100 -35 17 -5 39 -14 50 -19 11 -5 58 -23 105 -41 47 -18 105 -42 130
-54 25 -13 59 -26 75 -30 17 -4 44 -13 60 -20 17 -8 50 -22 75 -32 25 -10 78
-33 118 -51 40 -18 75 -33 78 -33 6 0 76 -32 224 -102 58 -27 119 -55 135 -62
78 -34 500 -247 583 -293 52 -29 96 -53 98 -53 2 0 28 -17 57 -37 59 -41 70
-49 187 -125 124 -80 263 -172 275 -180 5 -4 42 -29 80 -54 39 -26 95 -64 126
-85 69 -47 172 -95 220 -104 42 -8 92 13 110 46 35 66 -43 224 -240 484 -42
55 -85 112 -96 127 -96 127 -509 555 -700 725 -103 91 -392 314 -487 375 -40
25 -89 57 -108 70 -174 121 -235 160 -327 209 -26 15 -70 40 -98 57 -27 17
-77 45 -110 61 -33 17 -67 35 -75 39 -44 25 -82 45 -150 77 -41 20 -129 63
-195 95 -151 73 -274 130 -283 130 -4 1 -25 9 -47 20 -22 11 -45 19 -50 20 -6
0 -16 5 -22 11 -7 7 -33 19 -60 29 -26 9 -95 36 -153 59 -58 24 -130 52 -160
63 -30 11 -70 27 -88 34 -18 8 -40 14 -50 14 -9 1 -35 9 -57 20 -22 11 -48 19
-57 20 -10 0 -32 6 -50 14 -35 15 -121 41 -253 76 -105 27 -165 44 -250 69
-38 12 -77 21 -86 21 -9 0 -33 7 -52 15 -20 8 -48 15 -61 15 -14 0 -45 7 -70
15 -45 15 -128 33 -281 59 -44 8 -93 19 -108 25 -16 6 -54 11 -86 11 -32 0
-76 6 -98 14 -22 8 -75 17 -119 21 -43 4 -95 11 -114 16 -19 6 -97 14 -172 19
-75 5 -146 14 -158 20 -12 6 -77 16 -144 20 -67 5 -135 14 -151 20 -17 6 -140
16 -275 20 -135 5 -276 14 -315 19 -79 12 -711 12 -795 1z"/>
<path d="M13395 20521 c-200 -4 -297 -10 -311 -18 -12 -7 -30 -29 -40 -50 -16
-33 -19 -70 -22 -283 -4 -301 16 -1543 28 -1735 5 -77 9 -1555 10 -3285 1
-1931 5 -3159 11 -3182 5 -21 18 -42 29 -48 12 -6 269 -10 738 -10 l719 0 24
26 24 26 4 4136 c2 2275 4 4180 5 4232 1 121 -5 143 -51 172 l-38 23 -420 1
c-231 0 -550 -2 -710 -5z"/>
<path d="M15255 20520 c-106 -6 -143 -20 -167 -64 -9 -15 -11 -191 -9 -656 2
-593 3 -637 20 -660 10 -14 29 -31 42 -37 38 -20 4070 -14 4119 6 45 18 71 40
149 126 35 39 90 97 122 130 32 33 71 79 87 103 16 24 47 56 70 71 96 63 372
330 486 469 37 45 71 82 75 82 4 0 36 29 72 65 35 36 79 71 96 77 20 7 65 48
113 100 101 112 105 134 28 169 l-53 24 -2575 0 c-1416 0 -2620 -2 -2675 -5z"/>
</g>
</svg>
