<svg xmlns="http://www.w3.org/2000/svg" width="802pt" height="799pt" viewBox="0 0 802 799">
  <g transform="translate(0.000000,799.000000) scale(0.100000,-0.100000)"
fill="#3d3d3d" stroke="none"><path d="M3735 7465 c-577 -62 -1181 -290 -1664 -628 -228 -161 -594 -495
-745 -682 -282 -348 -448 -647 -588 -1055 -133 -389 -178 -686 -178 -1169 0
-376 27 -602 105 -906 193 -741 652 -1414 1295 -1896 268 -202 639 -388 1015
-511 83 -26 193 -57 245 -68 52 -10 136 -28 185 -39 255 -57 737 -71 1070 -32
99 12 198 26 220 31 22 6 74 17 115 26 258 53 614 190 860 330 101 57 303 198
431 301 133 106 375 345 488 480 344 411 579 881 704 1408 23 94 22 105 -7
105 -27 0 -33 -11 -91 -160 -62 -158 -210 -439 -314 -596 -259 -390 -607 -746
-956 -978 -191 -127 -256 -165 -430 -250 -357 -175 -566 -240 -995 -311 -122
-20 -393 -34 -470 -24 -36 5 -111 11 -167 14 -242 11 -546 86 -933 230 -99 37
-433 215 -555 297 -362 242 -664 549 -879 897 -214 346 -368 790 -422 1216
-20 151 -23 679 -5 805 32 228 94 489 163 685 89 256 313 654 502 895 258 329
612 630 964 823 383 210 688 310 1122 369 126 17 633 17 760 0 236 -31 311
-46 460 -89 384 -112 706 -254 969 -428 143 -94 176 -109 187 -80 16 40 -46
133 -186 284 -288 311 -776 561 -1278 656 -307 58 -725 79 -997 50z"/><path d="M3091 5347 c-8 -20 5 -2647 13 -2654 1 -2 106 -4 232 -5 l229 -3 5
1315 c3 723 3 1326 0 1340 l-6 25 -232 3 -232 2 -9 -23z"/><path d="M3733 5358 c-13 -20 -16 -369 -4 -401 l11 -27 647 2 648 3 210 208
c165 164 206 210 195 217 -9 6 -352 10 -857 10 -663 0 -844 -3 -850 -12z"/><path d="M5329 5063 c-13 -16 -12 -17 4 -4 16 13 21 21 13 21 -2 0 -10 -8 -17
-17z"/><path d="M7181 4834 c0 -11 3 -14 6 -6 3 7 2 16 -1 19 -3 4 -6 -2 -5 -13z"/><path d="M5064 4798 l-19 -23 23 19 c12 11 22 21 22 23 0 8 -8 2 -26 -19z"/><path d="M5764 4368 l-19 -23 23 19 c12 11 22 21 22 23 0 8 -8 2 -26 -19z"/><path d="M6529 3243 l-24 -28 28 24 c15 14 27 26 27 28 0 8 -8 1 -31 -24z"/><path d="M6349 3063 l-34 -38 38 34 c34 33 42 41 34 41 -2 0 -19 -17 -38 -37z"/><path d="M4610 2746 c0 -2 8 -10 18 -17 15 -13 16 -12 3 4 -13 16 -21 21 -21
13z"/><path d="M4688 2703 c7 -3 16 -2 19 1 4 3 -2 6 -13 5 -11 0 -14 -3 -6 -6z"/></g>
  <g transform="translate(0.000000,799.000000) scale(0.100000,-0.100000)"
fill="#7A9E7E" stroke="none"><path d="M7340 6158 c-36 -11 -92 -26 -125 -34 -33 -8 -74 -21 -91 -29 -28
-13 -256 -102 -279 -109 -5 -2 -30 -13 -55 -24 -25 -12 -52 -22 -61 -22 -9 0
-19 -6 -22 -14 -3 -8 -24 -17 -47 -21 -22 -4 -46 -12 -53 -19 -14 -14 -200
-106 -215 -106 -6 0 -17 -6 -24 -12 -8 -7 -47 -31 -88 -52 -41 -21 -82 -44
-90 -51 -8 -6 -31 -18 -50 -25 -19 -7 -44 -21 -55 -31 -11 -10 -36 -25 -55
-33 -20 -8 -44 -24 -54 -35 -11 -12 -23 -21 -27 -21 -5 0 -42 -22 -82 -50 -41
-27 -79 -50 -84 -50 -6 0 -13 -7 -17 -15 -3 -8 -12 -15 -21 -15 -8 0 -15 -4
-15 -8 0 -4 -14 -16 -32 -26 -30 -18 -64 -45 -94 -73 -7 -7 -16 -13 -20 -13
-3 0 -23 -15 -44 -32 -20 -18 -52 -44 -70 -58 -18 -14 -40 -32 -49 -41 -9 -9
-52 -47 -96 -85 -44 -38 -80 -71 -80 -74 -1 -3 -25 -27 -54 -55 -83 -78 -245
-273 -321 -387 -14 -21 -28 -38 -32 -38 -5 0 -8 -6 -8 -14 0 -8 -3 -16 -7 -18
-5 -1 -19 -24 -33 -50 -13 -27 -28 -48 -32 -48 -5 0 -8 -7 -8 -16 0 -14 -36
-85 -82 -161 -10 -17 -21 -40 -23 -50 -2 -10 -11 -36 -21 -58 -10 -22 -19 -49
-21 -60 -2 -11 -13 -45 -24 -75 -11 -30 -23 -68 -26 -85 -3 -16 -9 -37 -14
-46 -4 -9 -6 -18 -4 -21 3 -2 0 -20 -5 -39 -6 -19 -12 -47 -14 -64 -2 -16 -8
-55 -12 -85 -10 -70 -11 -350 -2 -455 9 -97 59 -300 89 -360 33 -66 59 -87
105 -83 36 3 41 7 71 63 18 33 33 67 33 76 0 9 7 20 16 23 9 4 14 9 11 12 -11
11 216 444 334 639 10 17 26 44 35 60 31 55 107 170 116 173 4 2 8 10 8 18 0
8 5 14 10 14 6 0 10 6 10 13 0 7 9 23 20 35 11 12 20 25 20 29 0 5 11 20 24
34 13 14 29 36 36 50 24 45 290 383 334 424 12 11 29 31 39 45 23 32 136 158
212 235 33 33 77 80 98 103 37 41 57 47 57 16 0 -14 -56 -94 -99 -142 -12 -12
-21 -27 -21 -32 0 -5 -6 -13 -13 -17 -7 -4 -23 -25 -36 -45 -12 -21 -28 -41
-34 -45 -7 -5 -25 -26 -40 -49 -15 -22 -36 -50 -46 -60 -10 -11 -20 -24 -22
-30 -8 -19 -159 -240 -178 -261 -12 -12 -21 -25 -21 -28 0 -6 -41 -67 -51 -75
-4 -3 -9 -15 -13 -27 -4 -13 -12 -23 -17 -23 -5 0 -9 -5 -9 -11 0 -6 -10 -25
-22 -41 -11 -17 -33 -54 -48 -82 -37 -72 -89 -158 -108 -178 -8 -10 -12 -18
-9 -18 4 0 -6 -21 -22 -47 -35 -58 -251 -488 -251 -499 0 -4 -22 -53 -48 -108
-27 -56 -55 -117 -62 -136 -7 -19 -28 -65 -47 -102 -18 -38 -33 -70 -33 -73 0
-9 -152 -310 -159 -315 -4 -3 -13 -20 -20 -37 -8 -18 -17 -33 -22 -33 -5 0 -8
-3 -7 -7 2 -5 -16 -43 -40 -85 -23 -42 -42 -82 -42 -88 0 -5 -4 -10 -8 -10 -5
0 -23 -29 -42 -65 -19 -36 -37 -65 -42 -65 -4 0 -8 -6 -8 -14 0 -8 -6 -21 -12
-28 -20 -21 -36 -49 -54 -90 -9 -21 -20 -38 -25 -38 -5 0 -9 -6 -9 -12 0 -7
-17 -40 -37 -73 -42 -70 -93 -158 -136 -235 -17 -30 -46 -80 -66 -110 -19 -30
-46 -76 -59 -102 -13 -27 -28 -48 -33 -48 -5 0 -8 -3 -7 -7 2 -11 -34 -83 -42
-83 -4 0 -15 -20 -24 -45 -10 -25 -22 -45 -27 -45 -5 0 -9 -7 -9 -16 0 -9 -16
-42 -35 -75 l-34 -58 39 -11 c47 -13 173 -16 216 -6 28 6 39 19 42 50 0 5 4
12 9 15 4 3 29 49 56 101 26 52 51 102 56 110 5 8 24 44 42 80 18 36 36 67 41
68 4 2 8 12 8 23 0 10 4 19 9 19 5 0 15 17 22 37 6 21 26 62 43 91 66 114 85
148 92 162 22 49 87 177 94 185 7 10 127 224 195 348 18 32 38 66 46 76 8 9
22 33 33 54 10 20 27 45 37 56 11 11 19 24 19 28 1 19 160 156 160 138 0 -4
10 0 23 8 23 15 140 52 187 60 14 2 32 7 40 10 8 3 65 22 125 42 61 20 160 61
222 91 62 30 114 54 117 54 2 0 35 20 73 45 37 25 74 45 81 45 6 0 12 4 12 8
0 4 42 36 94 70 51 34 101 71 111 82 10 11 21 20 25 20 21 0 308 299 360 376
14 20 33 45 43 55 9 10 17 26 17 34 0 7 6 18 14 22 7 4 28 33 47 63 18 30 37
57 41 58 4 2 8 8 8 13 0 16 52 119 60 119 6 0 20 34 19 48 0 1 7 10 16 18 8 9
15 24 15 34 0 10 4 21 8 24 4 3 14 28 22 56 8 28 18 53 22 56 4 3 8 11 8 18 0
8 8 31 17 52 9 22 18 45 19 53 3 14 39 136 55 186 6 17 12 41 15 55 2 14 7 36
11 50 6 26 8 33 18 90 24 134 37 214 41 270 3 36 7 76 10 90 3 14 7 52 9 85 6
74 16 205 21 265 2 25 6 78 9 118 9 112 23 208 45 307 11 50 23 106 26 125 3
19 10 37 15 38 5 2 9 14 9 26 0 13 3 26 7 30 4 3 8 15 10 25 1 10 12 40 24 67
12 27 23 51 24 54 7 29 23 62 47 102 49 80 27 93 -92 56z"/></g>
</svg>